{"title":"English Vinglish 2012 BRRip 720p x264 AAC Hindi - ViZNU [P2PDL]","uid":8108182,"size":759463100,"categoryP":"video","categoryS":"hd___movies","magnet":"?xt=urn:btih:8bca4377ed5b6e674526703a2e9ff09d47f25288&amp;dn=English+Vinglish+2012+BRRip+720p+x264+AAC+Hindi+-+ViZNU+%5BP2PDL%5D&amp;tr=udp%3A%2F%2Ftracker.openbittorrent.com%3A80&amp;tr=udp%3A%2F%2Fopen.demonii.com%3A1337&amp;tr=udp%3A%2F%2Ftracker.coppersurfer.tk%3A6969&amp;tr=udp%3A%2F%2Fexodus.desync.com%3A6969","seeders":26,"leechers":3,"uploader":"ValidusVyto","files":-1,"time":1360123109,"description":"_________________________  Visit us at _________________________\n  &lt;a href=&quot;\nhttp://p2pdl.com&quot; rel=&quot;nofollow&quot; target=&quot;_NEW&quot;&gt;\nhttp://p2pdl.com&lt;/a&gt;  ____________________________ &lt;a href=&quot; http://p2pdl.com&quot; rel=&quot;nofollow&quot; target=&quot;_NEW&quot;&gt; http://p2pdl.com&lt;/a&gt;\n\n &lt;a href=&quot;\nhttp://www.shotpix.com/images/44289433092877826519.jpg&quot; rel=&quot;nofollow&quot; target=&quot;_NEW&quot;&gt;\nhttp://www.shotpix.com/images/44289433092877826519.jpg&lt;/a&gt;\n\n\nEnglish Vinglish 2012 BRRip 720p x264 AAC Hindi - ViZNU [P2PDL]\n\t\t\t\t\nGenre: Comedy | Drama | Family\nA quiet, sweet tempered housewife endures small slights from her well-educated husband and daughter everyday because of her inability to speak and understand English.\nDirector: Gauri Shinde\nStars: Sridevi, Adil Hussain, Mehdi Nebbou \nRated: N/A\n\nInfo:  &lt;a href=&quot;\nhttp://www.imdb.com/title/tt2181931/&quot; rel=&quot;nofollow&quot; target=&quot;_NEW&quot;&gt;\nhttp://www.imdb.com/title/tt2181931/&lt;/a&gt;\n\nTrailer: \n\n\n\nGeneral\nFormat                         : MPEG-4\nFormat profile                 : Base Media / Version 2\nCodec ID                       : mp42\nFile size                      : 718 MiB\nDuration                       : 2h 13mn\nOverall bit rate mode          : Variable\nOverall bit rate               : 751 Kbps\nMovie name                     : English Vinglish 2012 BRRip 720p x264 AAC - ViZNU [P2PDL]\n\nSource                         : 720p.BluRay [DDR] (Thanks)\n\nVideo\nFormat                         : AVC\nBit rate mode                  : Variable\nBit rate                       : 665 Kbps\nWidth                          : 1 280 pixels\nHeight                         : 544 pixels\nDisplay aspect ratio           : 2.35:1\nFrame rate mode                : Variable\nFrame rate                     : 24.000 fps\nScan type                      : Progressive\nBits/(Pixel*Frame)             : 0.040\nStream size                    : 636 MiB (89%)\nWriting library                : x264 core 129\n\nAudio\nFormat                         : AAC\nBit rate                       : 79.9 Kbps\nChannel(s)                     : 2 channels\nChannel positions              : Front: L R\nSampling rate                  : 48.0 KHz\nStream size                    : 76.4 MiB (11%)\nLanguage                       : Hindi\n\nSubtitle                       : Yes ( English)\n\n\nScreens:\n &lt;a href=&quot;\nhttp://www.shotpix.com/images/92179117846157195234.jpg&quot; rel=&quot;nofollow&quot; target=&quot;_NEW&quot;&gt;\nhttp://www.shotpix.com/images/92179117846157195234.jpg&lt;/a&gt; &lt;a href=&quot;\nhttp://www.shotpix.com/images/60408997594980411380.jpg&quot; rel=&quot;nofollow&quot; target=&quot;_NEW&quot;&gt;\nhttp://www.shotpix.com/images/60408997594980411380.jpg&lt;/a&gt; &lt;a href=&quot;\nhttp://www.shotpix.com/images/01197472345270337876.jpg&quot; rel=&quot;nofollow&quot; target=&quot;_NEW&quot;&gt;\nhttp://www.shotpix.com/images/01197472345270337876.jpg&lt;/a&gt; &lt;a href=&quot;\nhttp://www.shotpix.com/images/35340558159548138803.jpg&quot; rel=&quot;nofollow&quot; target=&quot;_NEW&quot;&gt;\nhttp://www.shotpix.com/images/35340558159548138803.jpg&lt;/a&gt; &lt;a href=&quot;\nhttp://www.shotpix.com/images/13296899742585965630.jpg&quot; rel=&quot;nofollow&quot; target=&quot;_NEW&quot;&gt;\nhttp://www.shotpix.com/images/13296899742585965630.jpg&lt;/a&gt;\n\n\nThumbs:\n &lt;a href=&quot;\nhttp://www.shotpix.com/images/10636185299935891654.jpg&quot; rel=&quot;nofollow&quot; target=&quot;_NEW&quot;&gt;\nhttp://www.shotpix.com/images/10636185299935891654.jpg&lt;/a&gt;\n\n----------------------------------------------------------------------------------------------------\n\n\nRecommend to you to use latest version of VLC player. Install K-Lite Codec Pack or shark007 codecs\nin case of any kind of problem in playback (For non-VLC Media Player users). Alternatively, install\nCore AVC codecs, the fastest decoder that there is coupled with Community Center Codec Pack and play\non Windows Media Player Classic. Check sample to be sure.\nEnjoy!\n\nGreets to: VYTO, a2zRG, MusiK_KinG, Neon, Kuroyukihime, TorDigger, Ash968, StyLishSaLH and staff members at\nExtraTorrent, TPB, H33T, KAT, 1337x, PublicHD, Ahashare, BTScene, SilverTorrent, LimeTorrents, TorrentMafia,\nP2PDL, and all others.\n\nEncoder Notes: Looking For Early Access To Anything You Can Provide DVDScr, R5, DVDR, BluRay, Direct\nAudio, Early Music Releases, Seedboxes, Dedicated Servers anything u can provide, Advance / Promo CDs/\nDVDs. If You Got anything to offer contact me at &quot;&lt;a class=&quot;__cf_email__&quot; href=&quot;/cdn-cgi/l/email-protection&quot; data-cfemail=&quot;8efefce9cee6fbfde6a0ede1e3&quot;&gt;[email&amp;#160;protected]&lt;/a&gt;&lt;script cf-hash='f9e31' type=&quot;text/javascript&quot;&gt;\n/* &lt;![CDATA[ */!function(){try{var t=&quot;currentScript&quot;in document?document.currentScript:function(){for(var t=document.getElementsByTagName(&quot;script&quot;),e=t.length;e--;)if(t[e].getAttribute(&quot;cf-hash&quot;))return t[e]}();if(t&amp;&amp;t.previousSibling){var e,r,n,i,c=t.previousSibling,a=c.getAttribute(&quot;data-cfemail&quot;);if(a){for(e=&quot;&quot;,r=parseInt(a.substr(0,2),16),n=2;a.length-n;n+=2)i=parseInt(a.substr(n,2),16)^r,e+=String.fromCharCode(i);e=document.createTextNode(e),c.parentNode.replaceChild(e,c)}}}catch(u){}}();/* ]]&gt; */&lt;/script&gt;&quot;.","torrent":{"xt":"urn:btih:8bca4377ed5b6e674526703a2e9ff09d47f25288","amp;dn":"English+Vinglish+2012+BRRip+720p+x264+AAC+Hindi+-+ViZNU+%5BP2PDL%5D","amp;tr":["udp%3A%2F%2Ftracker.openbittorrent.com%3A80","udp%3A%2F%2Fopen.demonii.com%3A1337","udp%3A%2F%2Ftracker.coppersurfer.tk%3A6969","udp%3A%2F%2Fexodus.desync.com%3A6969"],"infoHash":"8bca4377ed5b6e674526703a2e9ff09d47f25288","infoHashBuffer":{"type":"Buffer","data":[139,202,67,119,237,91,110,103,69,38,112,58,46,159,240,157,71,242,82,136]},"announce":[],"urlList":[]}}